<svg width="800" height="800" viewBox="0 -32 576 576" xmlns="http://www.w3.org/2000/svg"><circle style="fill:#e3e3e3;fill-opacity:1;stroke:none;stroke-width:.72" cx="288" cy="256" r="288"/><path d="M237.057 315.28c25.73-25.729 32.595-44.024 39.859-63.42 7.824-20.861 15.921-42.431 45.256-71.781 29.336-29.35 50.92-37.44 71.79-45.264 17.61-6.637 34.394-13.038 56.628-33.458l-27.78-27.573a22.86 22.86 0 0 0-29.63-2.087c-10.058 7.449-18.546 10.612-30.235 14.97-105.18 39.188-133.011 121.611-139.36 138.432-21.94 58.133-66.038 69.82-72.8 72.336-18.333 6.828-40.36 15.029-67.16 37.137-10.22 8.444-10.685 23.93-1.32 33.229l26.372 26.186c25.935-24.04 45.846-31.687 65.02-38.885 19.372-7.256 37.653-14.1 63.36-39.821zm256.629-171.085-26.364-26.186c-25.95 24.062-45.853 31.71-65.079 38.929-19.365 7.264-37.653 14.13-63.382 39.822-25.73 25.692-32.588 44.017-39.822 63.42-7.846 20.89-15.95 42.439-45.293 71.774s-50.884 37.41-71.753 45.22c-17.595 6.637-34.372 13.023-56.576 33.428l27.786 27.602a22.86 22.86 0 0 0 29.63 2.08c10.03-7.419 18.503-10.575 30.191-14.926 104.864-39.084 132.74-121.014 139.332-138.41 21.924-58.103 66.023-69.813 72.807-72.35 18.34-6.836 40.367-15.044 67.188-37.174 10.243-8.407 10.708-23.93 1.342-33.222z" style="fill:#95190c;fill-opacity:1;stroke-width:.737439"/></svg>